<?xml version="1.0" encoding="UTF-8" ?>
<!DOCTYPE svg PUBLIC "-//W3C//DTD SVG 1.1//EN" "http://www.w3.org/Graphics/SVG/1.1/DTD/svg11.dtd">
<svg width="1048pt" height="980pt" viewBox="0 0 1048 980" version="1.1" xmlns="http://www.w3.org/2000/svg">
<g id="#123876ff">
</g>
<g id="#19417aff">
</g>
<g id="#214a7fff">
</g>
<g id="#295585ff">
</g>
<g id="#305e8aff">
</g>
<g id="#37678fff">
</g>
<g id="#3d6f93ff">
</g>
<g id="#447798ff">
</g>
<g id="#4a809cff">
</g>
<g id="#538ba2ff">
</g>
<g id="#5d98a9ff">
</g>
<g id="#65a0aeff">
</g>
<g id="#69a7b1ff">
</g>
<g id="#70afb6ff">
</g>
<g id="#78babbff">
</g>
<g id="#81c6c2ff">
</g>
<g id="#ffffffff">
<path fill="#ffffff" opacity="1.00" d=" M 228.97 304.97 C 228.56 302.06 230.88 300.04 233.22 298.87 C 256.69 299.16 280.16 298.94 303.64 298.96 C 325.09 299.08 346.54 298.93 367.99 299.01 C 386.46 298.72 404.98 299.55 423.27 302.28 C 442.68 305.15 461.82 310.16 479.95 317.72 C 494.80 323.90 509.03 331.67 521.92 341.31 C 542.40 356.55 559.25 376.55 570.89 399.26 C 561.24 408.95 551.54 418.60 541.87 428.28 C 526.80 443.41 511.66 458.47 496.57 473.59 C 493.88 476.06 491.62 479.59 487.68 480.04 C 485.14 479.49 482.57 477.80 482.34 474.99 C 480.77 461.96 477.25 448.98 470.49 437.64 C 459.81 419.42 441.75 406.31 421.98 399.46 C 408.26 394.75 393.72 392.81 379.25 392.66 C 366.51 392.60 353.77 392.62 341.03 392.63 C 338.22 392.38 335.28 394.17 334.72 397.03 C 334.39 399.67 334.57 402.33 334.55 404.98 C 334.56 461.33 334.56 517.67 334.55 574.01 C 334.57 576.65 334.39 579.31 334.71 581.95 C 335.28 584.83 338.23 586.65 341.07 586.37 C 352.33 586.41 363.59 586.32 374.85 586.41 C 377.89 586.39 380.93 586.27 383.97 586.16 C 381.00 589.17 377.98 592.13 375.00 595.14 C 350.30 619.90 325.54 644.60 300.81 669.32 C 297.28 672.92 293.69 676.46 290.11 680.03 C 273.32 680.00 256.53 679.97 239.74 680.02 C 235.93 680.18 230.40 680.66 229.14 675.97 C 228.71 666.99 229.10 657.97 228.97 648.98 C 228.96 534.31 228.96 419.64 228.97 304.97 Z" />
<path fill="#ffffff" opacity="1.00" d=" M 731.66 306.78 C 749.52 312.04 766.36 321.61 779.14 335.26 C 791.83 348.77 799.84 366.60 801.26 385.10 C 802.87 405.52 800.36 427.33 788.71 444.70 C 780.02 457.23 768.18 467.41 755.00 474.99 C 752.24 476.34 750.97 479.93 752.48 482.65 C 753.47 484.67 755.76 485.38 757.66 486.27 C 773.90 493.11 789.16 502.90 800.86 516.19 C 812.29 529.33 817.56 546.76 818.74 563.89 C 819.37 574.94 819.24 586.12 817.02 597.00 C 814.07 612.09 807.25 626.47 797.01 637.98 C 785.38 651.18 770.11 660.75 753.85 667.21 C 729.87 676.66 703.88 679.67 678.28 680.00 C 657.23 680.05 636.18 679.97 615.13 680.01 C 590.68 680.05 566.23 679.97 541.78 680.01 C 522.38 680.06 502.97 679.93 483.56 680.04 C 480.57 679.76 478.09 677.11 478.32 674.05 C 478.27 636.11 478.33 598.17 478.29 560.22 C 480.49 558.01 482.68 555.81 484.87 553.60 C 505.08 533.58 525.09 513.36 545.24 493.28 C 557.21 481.36 569.10 469.37 581.07 457.45 C 584.23 455.04 586.36 450.00 591.02 450.81 C 605.35 450.87 619.68 450.79 634.01 450.81 C 644.46 450.75 654.99 451.17 665.36 449.49 C 675.04 447.85 685.27 444.50 691.67 436.60 C 697.35 429.64 698.35 420.10 697.30 411.47 C 696.47 404.78 693.12 398.43 687.93 394.12 C 682.07 389.13 674.54 386.68 667.08 385.31 C 665.19 385.03 663.56 384.05 662.15 382.83 C 661.52 380.74 660.77 378.22 662.36 376.34 C 665.74 372.44 669.61 368.99 673.21 365.30 C 692.73 345.83 712.23 326.34 731.66 306.78 M 581.25 530.91 C 581.20 550.27 581.23 569.63 581.24 588.99 C 581.00 592.12 583.68 595.16 586.88 595.02 C 598.69 595.10 610.51 595.04 622.32 595.06 C 639.77 594.82 657.25 595.60 674.68 594.52 C 683.82 593.37 693.16 591.21 700.79 585.79 C 706.71 581.71 711.07 575.40 712.58 568.35 C 714.57 558.71 713.48 547.77 707.02 539.96 C 699.98 531.17 688.67 527.30 677.84 525.98 C 668.61 524.62 659.25 525.01 649.96 524.94 C 641.37 524.98 632.77 524.87 624.19 524.98 C 611.78 524.90 599.36 524.92 586.95 524.97 C 583.76 524.78 581.04 527.78 581.25 530.91 Z" />
</g>
<g id="#5a94a7ff">
</g>
<g id="#32618bff">
</g>
<g id="#3e7093ff">
</g>
<g id="#457999ff">
</g>
<g id="#5087a0ff">
</g>
<g id="#568fa4ff">
</g>
<g id="#5c96a8ff">
</g>
<g id="#305f8aff">
</g>
<g id="#5f9aaaff">
</g>
<g id="#457a99ff">
</g>
<g id="#4d849eff">
</g>
</svg>
