<?xml version="1.0" encoding="UTF-8" ?>
<!DOCTYPE svg PUBLIC "-//W3C//DTD SVG 1.1//EN" "http://www.w3.org/Graphics/SVG/1.1/DTD/svg11.dtd">
<svg width="1320pt" height="990pt" viewBox="0 0 1320 990" version="1.1" xmlns="http://www.w3.org/2000/svg">
<g id="#000000ff">
</g>
<g id="#aaff00ff">
<path fill="#aaff00" opacity="1.00" d=" M 637.20 323.12 C 680.46 322.81 723.73 323.11 767.00 322.98 C 813.32 322.44 859.61 340.91 892.76 373.24 C 923.89 402.18 943.72 442.75 948.01 485.00 C 953.34 530.50 939.69 577.58 911.80 613.80 C 879.02 656.97 826.30 684.16 772.01 685.01 C 638.68 684.98 505.36 685.01 372.04 685.00 C 375.19 677.32 378.88 669.87 382.28 662.30 C 383.54 660.11 382.56 655.67 388.01 659.01 C 420.57 658.85 453.16 659.26 485.71 658.83 C 489.17 650.11 493.33 641.63 497.15 633.08 C 588.77 632.84 680.39 633.15 772.02 632.93 C 786.63 631.11 800.74 624.62 811.30 614.30 C 832.85 593.41 837.45 557.40 820.76 532.22 C 812.33 519.71 800.08 508.47 785.10 504.76 C 785.10 504.38 785.11 503.63 785.11 503.25 C 798.67 500.11 809.25 490.31 818.12 480.11 C 834.53 457.90 835.25 425.44 819.01 402.99 C 806.95 385.23 785.45 374.41 764.01 374.98 C 680.31 374.99 596.61 375.06 512.91 374.94 C 516.23 366.18 520.78 357.87 524.20 349.12 C 558.06 348.72 591.94 349.29 625.79 348.86 C 629.76 340.35 633.51 331.75 637.20 323.12 Z" />
<path fill="#aaff00" opacity="1.00" d=" M 603.08 400.04 C 643.07 399.97 683.07 399.96 723.07 400.05 C 722.66 404.99 719.64 409.24 717.71 413.71 C 712.25 426.51 705.80 438.90 700.76 451.87 C 626.48 452.13 552.19 452.01 477.91 451.93 C 481.24 443.18 485.78 434.87 489.20 426.12 C 523.08 425.75 556.98 426.24 590.85 425.90 C 595.21 417.44 598.38 408.35 603.08 400.04 Z" />
<path fill="#aaff00" opacity="1.00" d=" M 567.29 478.17 C 607.54 477.80 647.79 478.05 688.04 478.04 C 688.12 479.20 687.88 480.29 687.34 481.31 C 679.54 497.37 672.53 513.81 664.96 529.98 C 590.96 530.00 516.95 530.05 442.96 529.95 C 443.81 523.90 447.94 518.69 450.00 512.97 C 451.70 510.15 452.14 506.71 454.17 504.10 C 488.03 503.73 521.91 504.31 555.75 503.84 C 559.50 495.23 563.37 486.69 567.29 478.17 Z" />
<path fill="#aaff00" opacity="1.00" d=" M 532.18 556.11 C 572.48 555.88 612.79 556.00 653.09 556.06 C 646.75 570.32 640.18 584.57 633.80 598.85 C 632.38 603.75 629.52 609.86 623.01 607.97 C 551.33 608.02 479.65 608.03 407.98 607.96 C 407.49 604.62 409.73 601.85 410.98 598.96 C 414.08 593.18 415.90 586.74 419.17 581.10 C 453.05 580.75 486.94 581.26 520.81 580.87 C 524.67 572.67 527.70 563.95 532.18 556.11 Z" />
</g>
</svg>
