<?xml version="1.0" encoding="UTF-8" ?>
<!DOCTYPE svg PUBLIC "-//W3C//DTD SVG 1.1//EN" "http://www.w3.org/Graphics/SVG/1.1/DTD/svg11.dtd">
<svg width="600pt" height="400pt" viewBox="0 0 600 400" version="1.1" xmlns="http://www.w3.org/2000/svg">
<g id="#ffffffff">
</g>
<g id="#000000ff">
<path fill="#000000" opacity="1.00" d=" M 196.44 95.40 C 198.86 89.48 203.96 85.38 208.31 80.93 C 231.09 103.72 253.91 126.47 276.65 149.30 C 285.10 158.05 291.25 169.25 292.74 181.42 C 295.15 196.24 290.73 211.59 281.96 223.62 C 277.02 218.69 272.09 213.76 267.16 208.82 C 271.68 201.52 273.80 192.68 272.42 184.15 C 270.64 171.32 261.16 159.96 248.89 155.86 C 238.68 152.22 227.02 153.84 217.89 159.57 C 212.98 154.64 208.05 149.71 203.11 144.79 C 207.40 141.72 211.98 139.11 216.84 137.04 C 211.59 131.69 206.15 126.52 200.99 121.07 C 194.65 114.35 192.78 103.89 196.44 95.40 Z" />
<path fill="#000000" opacity="1.00" d=" M 325.35 147.25 C 347.50 125.16 369.56 102.99 391.73 80.93 C 395.85 85.27 400.77 89.14 403.26 94.74 C 407.27 103.31 405.53 114.13 399.05 121.02 C 393.88 126.49 388.41 131.67 383.15 137.05 C 388.02 139.10 392.58 141.73 396.88 144.79 C 391.95 149.71 387.02 154.64 382.11 159.57 C 374.26 154.70 364.61 152.68 355.53 154.65 C 343.72 156.97 333.49 165.78 329.39 177.09 C 325.44 187.46 326.92 199.49 332.84 208.82 C 327.91 213.75 322.99 218.69 318.05 223.61 C 307.13 208.92 303.41 188.90 309.62 171.53 C 312.48 162.14 318.50 154.13 325.35 147.25 Z" />
<path fill="#000000" opacity="1.00" d=" M 187.28 214.73 C 177.46 195.99 179.93 172.03 192.69 155.26 C 197.58 160.21 202.53 165.10 207.45 170.03 C 202.50 177.95 200.54 187.74 202.59 196.90 C 205.04 208.97 214.34 219.30 226.04 223.11 C 236.17 226.61 247.68 224.95 256.71 219.27 C 261.59 224.25 266.60 229.11 271.47 234.10 C 257.22 244.65 238.06 248.47 221.04 243.07 C 206.54 238.79 194.04 228.25 187.28 214.73 Z" />
<path fill="#000000" opacity="1.00" d=" M 392.55 170.03 C 397.47 165.10 402.42 160.21 407.32 155.26 C 418.07 169.64 421.82 189.15 416.13 206.29 C 412.81 217.17 405.95 226.91 396.91 233.80 C 381.46 246.06 359.20 248.96 341.10 241.13 C 336.49 239.61 332.66 236.54 328.53 234.10 C 333.40 229.11 338.42 224.27 343.29 219.28 C 350.63 223.81 359.50 225.94 368.07 224.53 C 379.26 222.92 389.38 215.53 394.42 205.42 C 400.12 194.36 399.22 180.47 392.55 170.03 Z" />
<path fill="#000000" opacity="1.00" d=" M 299.99 211.26 C 305.76 219.61 311.48 228.00 317.25 236.35 C 311.51 244.72 305.75 253.08 300.00 261.45 C 294.24 253.08 288.46 244.72 282.75 236.32 C 288.53 227.99 294.24 219.62 299.99 211.26 Z" />
</g>
</svg>
